<svg width="32" height="32" viewBox="0 0 32 32" fill="none" xmlns="http://www.w3.org/2000/svg">
<path d="M22.4004 2.7002C22.6764 2.70041 22.9004 2.92418 22.9004 3.2002V5.40039H27.2334C28.0618 5.40046 28.7334 6.07201 28.7334 6.90039V27.2334C28.7332 28.0616 28.0616 28.7333 27.2334 28.7334H4.7666C3.93833 28.7334 3.26681 28.0616 3.2666 27.2334V6.90039C3.2666 6.07199 3.9382 5.40043 4.7666 5.40039H9.09961V3.2002C9.09961 2.92418 9.32365 2.70041 9.59961 2.7002C9.87575 2.7002 10.0996 2.92405 10.0996 3.2002V5.40039H21.9004V3.2002C21.9004 2.92405 22.1242 2.7002 22.4004 2.7002ZM4.2666 27.2334C4.26679 27.4749 4.4382 27.6771 4.66602 27.7236L4.7666 27.7334H27.2334L27.334 27.7236C27.529 27.6838 27.6824 27.5298 27.7227 27.335L27.7334 27.2334V12.7998H4.2666V27.2334ZM8.0332 23.4668C8.30935 23.4668 8.5332 23.6907 8.5332 23.9668V25.0996C8.5332 25.3758 8.30935 25.5996 8.0332 25.5996H6.90039C6.62425 25.5996 6.40039 25.3758 6.40039 25.0996V23.9668C6.40039 23.6907 6.62425 23.4668 6.90039 23.4668H8.0332ZM12.2998 23.4668C12.5759 23.4668 12.7998 23.6907 12.7998 23.9668V25.0996C12.7998 25.3758 12.5759 25.5996 12.2998 25.5996H11.167C10.8908 25.5996 10.667 25.3758 10.667 25.0996V23.9668C10.667 23.6907 10.8908 23.4668 11.167 23.4668H12.2998ZM16.5664 23.4668C16.8425 23.4668 17.0664 23.6907 17.0664 23.9668V25.0996C17.0664 25.3758 16.8425 25.5996 16.5664 25.5996H15.4336C15.1575 25.5996 14.9336 25.3758 14.9336 25.0996V23.9668C14.9336 23.6907 15.1575 23.4668 15.4336 23.4668H16.5664ZM20.833 23.4668C21.1091 23.4668 21.333 23.6907 21.333 23.9668V25.0996C21.333 25.3758 21.1091 25.5996 20.833 25.5996H19.7002C19.4241 25.5996 19.2002 25.3758 19.2002 25.0996V23.9668C19.2002 23.6907 19.4241 23.4668 19.7002 23.4668H20.833ZM8.0332 19.2002C8.30935 19.2002 8.5332 19.4241 8.5332 19.7002V20.833C8.5332 21.1091 8.30935 21.333 8.0332 21.333H6.90039C6.62425 21.333 6.40039 21.1091 6.40039 20.833V19.7002C6.40039 19.4241 6.62425 19.2002 6.90039 19.2002H8.0332ZM12.2998 19.2002C12.5759 19.2002 12.7998 19.4241 12.7998 19.7002V20.833C12.7998 21.1091 12.5759 21.333 12.2998 21.333H11.167C10.8908 21.333 10.667 21.1091 10.667 20.833V19.7002C10.667 19.4241 10.8908 19.2002 11.167 19.2002H12.2998ZM16.5664 19.2002C16.8425 19.2002 17.0664 19.4241 17.0664 19.7002V20.833C17.0664 21.1091 16.8425 21.333 16.5664 21.333H15.4336C15.1575 21.333 14.9336 21.1091 14.9336 20.833V19.7002C14.9336 19.4241 15.1575 19.2002 15.4336 19.2002H16.5664ZM20.833 19.2002C21.1091 19.2002 21.333 19.4241 21.333 19.7002V20.833C21.333 21.1091 21.1091 21.333 20.833 21.333H19.7002C19.4241 21.333 19.2002 21.1091 19.2002 20.833V19.7002C19.2002 19.4241 19.4241 19.2002 19.7002 19.2002H20.833ZM25.0996 19.2002C25.3758 19.2002 25.5996 19.4241 25.5996 19.7002V20.833C25.5996 21.1091 25.3758 21.333 25.0996 21.333H23.9668C23.6907 21.333 23.4668 21.1091 23.4668 20.833V19.7002C23.4668 19.4241 23.6907 19.2002 23.9668 19.2002H25.0996ZM16.5664 14.9336C16.8425 14.9336 17.0664 15.1575 17.0664 15.4336V16.5664C17.0664 16.8425 16.8425 17.0664 16.5664 17.0664H15.4336C15.1575 17.0664 14.9336 16.8425 14.9336 16.5664V15.4336C14.9336 15.1575 15.1575 14.9336 15.4336 14.9336H16.5664ZM20.833 14.9336C21.1091 14.9336 21.333 15.1575 21.333 15.4336V16.5664C21.333 16.8425 21.1091 17.0664 20.833 17.0664H19.7002C19.4241 17.0664 19.2002 16.8425 19.2002 16.5664V15.4336C19.2002 15.1575 19.4241 14.9336 19.7002 14.9336H20.833ZM25.0996 14.9336C25.3758 14.9336 25.5996 15.1575 25.5996 15.4336V16.5664C25.5996 16.8425 25.3758 17.0664 25.0996 17.0664H23.9668C23.6907 17.0664 23.4668 16.8425 23.4668 16.5664V15.4336C23.4668 15.1575 23.6907 14.9336 23.9668 14.9336H25.0996ZM4.7666 6.40039C4.49049 6.40043 4.2666 6.62427 4.2666 6.90039V11.7998H27.7334V6.90039C27.7334 6.65873 27.5619 6.45674 27.334 6.41016L27.2334 6.40039H22.9004V7.4668C22.9003 7.74272 22.6763 7.96659 22.4004 7.9668C22.1243 7.9668 21.9005 7.74285 21.9004 7.4668V6.40039H10.0996V7.4668C10.0995 7.74285 9.87569 7.9668 9.59961 7.9668C9.32371 7.96659 9.09971 7.74272 9.09961 7.4668V6.40039H4.7666Z" fill="black"/>
</svg>
