<svg width="32" height="32" viewBox="0 0 32 32" fill="none" xmlns="http://www.w3.org/2000/svg">
<path d="M11.201 17.0663C11.6882 17.0658 12.1082 17.0658 12.4803 17.1551C13.6503 17.436 14.5636 18.3495 14.8446 19.5194C14.9339 19.8916 14.9339 20.3123 14.9334 20.7997V26.1337C14.9339 26.621 14.9339 27.0418 14.8446 27.4139C14.5636 28.5839 13.6503 29.4973 12.4803 29.7782C12.1082 29.8675 11.6882 29.8675 11.201 29.8671H5.86606C5.37888 29.8675 4.95882 29.8674 4.58676 29.7782C3.41674 29.4973 2.50249 28.5839 2.22153 27.4139C2.13218 27.0418 2.13317 26.621 2.13364 26.1337V20.7997C2.13317 20.3123 2.13218 19.8916 2.22153 19.5194C2.50249 18.3494 3.41675 17.436 4.58676 17.1551C4.95882 17.0659 5.37889 17.0658 5.86606 17.0663H11.201ZM26.1336 17.0663C26.621 17.0658 27.0417 17.0658 27.4139 17.1551C28.5838 17.4361 29.4972 18.3495 29.7782 19.5194C29.8675 19.8916 29.8675 20.3123 29.867 20.7997V26.1337C29.8675 26.621 29.8675 27.0418 29.7782 27.4139C29.4972 28.5838 28.5838 29.4972 27.4139 29.7782C27.0417 29.8675 26.621 29.8675 26.1336 29.8671H20.7997C20.3123 29.8675 19.8915 29.8675 19.5194 29.7782C18.3495 29.4972 17.4361 28.5838 17.1551 27.4139C17.0658 27.0418 17.0658 26.621 17.0663 26.1337V20.7997C17.0658 20.3123 17.0658 19.8916 17.1551 19.5194C17.4361 18.3495 18.3495 17.4361 19.5194 17.1551C19.8915 17.0658 20.3123 17.0658 20.7997 17.0663H26.1336ZM5.97348 19.2001C5.31687 19.2001 5.17565 19.2073 5.08383 19.2294C4.69405 19.3231 4.38938 19.6276 4.29575 20.0174C4.2737 20.1093 4.26645 20.2505 4.26645 20.9071V26.0262C4.26645 26.6828 4.2737 26.8241 4.29575 26.9159C4.38938 27.3057 4.69405 27.6102 5.08383 27.704C5.17565 27.726 5.31687 27.7333 5.97348 27.7333H11.0936C11.7498 27.7333 11.8905 27.726 11.9823 27.704C12.3722 27.6103 12.6767 27.3058 12.7704 26.9159C12.7924 26.8241 12.7997 26.6828 12.7997 26.0262V20.9071C12.7997 20.2505 12.7924 20.1093 12.7704 20.0174C12.6767 19.6275 12.3722 19.323 11.9823 19.2294C11.8905 19.2073 11.7498 19.2001 11.0936 19.2001H5.97348ZM20.9071 19.2001C20.2505 19.2001 20.1092 19.2073 20.0174 19.2294C19.6275 19.323 19.323 19.6276 19.2293 20.0174C19.2073 20.1093 19.2 20.2505 19.2 20.9071V26.0262C19.2 26.6828 19.2073 26.8241 19.2293 26.9159C19.323 27.3058 19.6275 27.6103 20.0174 27.704C20.1092 27.726 20.2505 27.7333 20.9071 27.7333H26.0262C26.6828 27.7333 26.824 27.726 26.9159 27.704C27.3058 27.6103 27.6103 27.3058 27.7039 26.9159C27.726 26.8241 27.7332 26.6828 27.7332 26.0262V20.9071C27.7332 20.2505 27.726 20.1093 27.7039 20.0174C27.6103 19.6276 27.3057 19.323 26.9159 19.2294C26.824 19.2073 26.6828 19.2001 26.0262 19.2001H20.9071ZM11.201 2.13365C11.6882 2.13319 12.1083 2.13223 12.4803 2.22154C13.6504 2.50245 14.5637 3.4167 14.8446 4.58678C14.9338 4.95885 14.9339 5.37887 14.9334 5.86607V11.201C14.9339 11.6883 14.9339 12.1082 14.8446 12.4803C14.5637 13.6504 13.6504 14.5637 12.4803 14.8446C12.1082 14.9339 11.6882 14.9339 11.201 14.9335H5.86606C5.37886 14.9339 4.95884 14.9339 4.58676 14.8446C3.41668 14.5637 2.50244 13.6504 2.22153 12.4803C2.13222 12.1083 2.13317 11.6882 2.13364 11.201V5.86607C2.13317 5.37893 2.1323 4.95882 2.22153 4.58678C2.50244 3.4167 3.41668 2.50245 4.58676 2.22154C4.95881 2.13231 5.37891 2.13319 5.86606 2.13365H11.201ZM26.1336 2.13365C26.621 2.13319 27.0417 2.13219 27.4139 2.22154C28.5839 2.5025 29.4973 3.41676 29.7782 4.58678C29.8674 4.95884 29.8675 5.3789 29.867 5.86607V11.201C29.8675 11.6882 29.8675 12.1083 29.7782 12.4803C29.4973 13.6503 28.5838 14.5636 27.4139 14.8446C27.0417 14.9339 26.621 14.9339 26.1336 14.9335H20.7997C20.3123 14.9339 19.8915 14.9339 19.5194 14.8446C18.3495 14.5636 17.436 13.6503 17.1551 12.4803C17.0658 12.1083 17.0658 11.6882 17.0663 11.201V5.86607C17.0658 5.3789 17.0659 4.95884 17.1551 4.58678C17.436 3.41676 18.3494 2.50251 19.5194 2.22154C19.8915 2.13219 20.3123 2.13319 20.7997 2.13365H26.1336ZM5.97348 4.26646C5.31687 4.26646 5.17565 4.27372 5.08383 4.29576C4.6941 4.38947 4.38946 4.69412 4.29575 5.08385C4.2737 5.17566 4.26645 5.31689 4.26645 5.9735V11.0936C4.26645 11.7496 4.27373 11.8905 4.29575 11.9823C4.38934 12.3721 4.69404 12.6766 5.08383 12.7704C5.17565 12.7924 5.31687 12.7997 5.97348 12.7997H11.0936C11.7499 12.7997 11.8905 12.7924 11.9823 12.7704C12.3723 12.6767 12.6767 12.3723 12.7704 11.9823C12.7924 11.8905 12.7997 11.7499 12.7997 11.0936V5.9735C12.7997 5.31689 12.7924 5.17566 12.7704 5.08385C12.6766 4.69406 12.3721 4.38936 11.9823 4.29576C11.8905 4.27375 11.7496 4.26647 11.0936 4.26646H5.97348ZM20.9071 4.26646C20.2505 4.26646 20.1092 4.27372 20.0174 4.29576C19.6276 4.3894 19.3231 4.69407 19.2293 5.08385C19.2073 5.17566 19.2 5.31689 19.2 5.9735V11.0936C19.2 11.7498 19.2073 11.8905 19.2293 11.9823C19.323 12.3722 19.6275 12.6767 20.0174 12.7704C20.1092 12.7924 20.2505 12.7997 20.9071 12.7997H26.0262C26.6828 12.7997 26.824 12.7924 26.9159 12.7704C27.3058 12.6767 27.6103 12.3722 27.7039 11.9823C27.726 11.8905 27.7332 11.7498 27.7332 11.0936V5.9735C27.7332 5.31689 27.726 5.17566 27.7039 5.08385C27.6102 4.69406 27.3057 4.38939 26.9159 4.29576C26.824 4.27372 26.6828 4.26646 26.0262 4.26646H20.9071Z" fill="black"/>
</svg>
