<svg width="32" height="32" viewBox="0 0 32 32" fill="none" xmlns="http://www.w3.org/2000/svg">
<path d="M16.9137 1.38755C17.7606 1.38769 18.495 1.97371 18.6823 2.79966L19.1891 5.03892C19.9983 5.27402 20.771 5.5959 21.4948 5.994L23.4381 4.76939C24.1546 4.31785 25.0883 4.42247 25.6871 5.02134L26.9801 6.31431C27.5789 6.9132 27.6836 7.84687 27.2321 8.56333L26.0065 10.5067C26.4043 11.23 26.7265 12.0017 26.9615 12.8104L29.2008 13.3182C30.0269 13.5055 30.6139 14.2398 30.6139 15.0868V16.9149C30.6139 17.7619 30.0269 18.4962 29.2008 18.6835L26.9615 19.1913C26.7264 20.0002 26.4036 20.7724 26.0055 21.496L27.2311 23.4383C27.6828 24.1549 27.5781 25.0894 26.9791 25.6883L25.6862 26.9813C25.0872 27.5801 24.1536 27.6839 23.4371 27.2323L21.4928 26.0077C20.7697 26.4052 19.9984 26.7269 19.1901 26.9618L18.6823 29.201C18.495 30.027 17.7606 30.614 16.9137 30.6141H15.0846C14.2377 30.614 13.5033 30.027 13.316 29.201L12.8082 26.9608C12.0003 26.7258 11.2291 26.4041 10.5065 26.0067L8.56311 27.2323C7.84663 27.6839 6.91302 27.5792 6.31409 26.9803L5.02112 25.6874C4.42219 25.0884 4.31748 24.1549 4.76917 23.4383L5.99475 21.494C5.59704 20.7709 5.27469 19.9997 5.03967 19.1913L2.79944 18.6835C1.97339 18.4962 1.38733 17.7619 1.38733 16.9149V15.0868C1.38733 14.2398 1.97339 13.5055 2.79944 13.3182L5.03967 12.8104C5.27457 12.0022 5.59625 11.2306 5.99377 10.5077L4.76819 8.56333C4.31669 7.84684 4.42129 6.91317 5.02014 6.31431L6.31311 5.02134C6.91203 4.42271 7.84574 4.31784 8.56213 4.76939L10.5055 5.99498C11.2286 5.59714 11.9998 5.27502 12.8082 5.0399L13.316 2.79966C13.5033 1.97369 14.2377 1.38766 15.0846 1.38755H16.9137ZM14.3268 6.54576C12.9214 6.79289 11.6213 7.34624 10.4977 8.13365L7.59534 6.30357L6.30237 7.59654L8.13147 10.4999C7.34469 11.6233 6.79235 12.9231 6.54553 14.328L3.19983 15.0868V16.9149L6.54553 17.6737C6.79253 19.079 7.3452 20.3792 8.13245 21.5028L6.30334 24.4051L7.59631 25.6981L10.4987 23.868C11.622 24.655 12.9219 25.2079 14.3268 25.4549L15.0846 28.8006H16.9137L17.6715 25.4559C19.0771 25.2092 20.3777 24.6562 21.5016 23.869L24.4039 25.6991L25.6969 24.4061L23.8678 21.5038C24.6554 20.3799 25.2076 19.0794 25.4547 17.6737L28.8004 16.9149V15.0868L25.4557 14.328C25.2088 12.9226 24.6559 11.6226 23.8688 10.4989L25.6979 7.59654L24.4049 6.30357L21.5026 8.13267C20.3784 7.34508 19.0776 6.79259 17.6715 6.54576L16.9137 3.20005H15.0846L14.3268 6.54576ZM16.0006 10.827C18.8574 10.8272 21.1733 13.1431 21.1735 15.9999C21.1735 18.8568 18.8575 21.1735 16.0006 21.1737C13.1436 21.1737 10.8268 18.8569 10.8268 15.9999C10.827 13.143 13.1437 10.827 16.0006 10.827ZM16.0006 12.7469C14.2041 12.7469 12.7469 14.2033 12.7467 15.9999C12.7467 17.7965 14.2039 19.2538 16.0006 19.2538C17.7971 19.2536 19.2535 17.7964 19.2535 15.9999C19.2534 14.2035 17.797 12.7471 16.0006 12.7469Z" fill="black"/>
</svg>
