<svg width="32" height="32" viewBox="0 0 32 32" fill="none" xmlns="http://www.w3.org/2000/svg">
<path d="M16.0004 2.38028C23.5224 2.38049 29.6205 8.47892 29.6205 16.0014C29.6203 23.5236 23.5222 29.6223 16.0004 29.6225C8.4784 29.6225 2.38052 23.5238 2.38028 16.0014C2.38028 8.47879 8.47825 2.38028 16.0004 2.38028ZM16.0004 3.38028C9.0306 3.38028 3.38028 9.03101 3.38028 16.0014C3.38052 22.9715 9.03075 28.6225 16.0004 28.6225C22.9699 28.6223 28.6203 22.9714 28.6205 16.0014C28.6205 9.03114 22.97 3.38049 16.0004 3.38028ZM16.0004 6.61368C21.1843 6.61389 25.3871 10.8169 25.3871 16.0014C25.3871 16.3617 25.3641 16.717 25.3246 17.0668H14.934V6.67422C15.2839 6.63466 15.6399 6.61368 16.0004 6.61368Z" fill="black"/>
</svg>
