<svg width="32" height="32" viewBox="0 0 32 32" fill="none" xmlns="http://www.w3.org/2000/svg">
<path d="M23.4736 20.8232C25.5392 20.9278 27.1816 22.636 27.1816 24.7275V27.6367C27.1814 29.7954 25.4312 31.5458 23.2725 31.5459H8.72754C6.6362 31.5459 4.92812 29.9032 4.82324 27.8379L4.81836 27.6367V24.7275C4.81836 22.5686 6.56861 20.8184 8.72754 20.8184H23.2725L23.4736 20.8232ZM8.72754 22.8184C7.67318 22.8184 6.81836 23.6732 6.81836 24.7275V27.6367L6.82812 27.832C6.92611 28.7945 7.73924 29.5459 8.72754 29.5459H23.2725C24.3266 29.5458 25.1814 28.6909 25.1816 27.6367V24.7275C25.1816 23.739 24.4305 22.9258 23.4678 22.8281L23.2725 22.8184H8.72754ZM20.3643 6.27246C22.5228 6.2728 24.2733 8.02304 24.2734 10.1816V13.0908C24.2733 15.2495 22.5228 16.9997 20.3643 17H11.6367C9.54531 17 7.83721 15.3574 7.73242 13.292L7.72754 13.0908V10.1816C7.72768 8.02283 9.47788 6.27246 11.6367 6.27246H20.3643ZM11.6367 8.27246C10.5824 8.27246 9.72768 9.1274 9.72754 10.1816V13.0908L9.7373 13.2861C9.8352 14.2487 10.6484 15 11.6367 15H20.3643C21.4183 14.9997 22.2733 14.1449 22.2734 13.0908V10.1816C22.2733 9.12761 21.4182 8.2728 20.3643 8.27246H11.6367ZM30.5449 0.454102C31.0971 0.454102 31.5447 0.902021 31.5449 1.4541C31.5449 2.00639 31.0972 2.4541 30.5449 2.4541H1.4541C0.902021 2.45386 0.454102 2.00624 0.454102 1.4541C0.454341 0.902169 0.902169 0.454341 1.4541 0.454102H30.5449Z" fill="black"/>
</svg>
